<svg width="45.867mm" height="45.818mm" version="1.1" viewBox="0 0 45.867 45.818" xmlns="http://www.w3.org/2000/svg">
 <g transform="translate(-74.268 -169.95)">
  <path d="m93.449 215.68c-7.4252-1.4253-13.468-5.8419-16.788-12.271-1.9383-3.753-2.3927-5.7624-2.3927-10.581 0-4.8182 0.45441-6.8276 2.3927-10.581 2.3025-4.458 5.7954-7.8688 10.306-10.063 3.9567-1.9252 5.3468-2.2304 10.186-2.2361 3.4996-4e-3 4.4088 0.0842 6.1997 0.60213 6.137 1.775 11.387 6.0719 14.293 11.697 1.9383 3.753 2.3928 5.7624 2.3928 10.581 0 3.4694-0.0919 4.4183-0.59637 6.1609-0.73953 2.5544-2.2614 5.6129-3.8971 7.8318l-1.2455 1.6896 2.9598 2.9682c2.3688 2.3756 2.9419 3.0948 2.8702 3.602-0.12949 0.91598-0.71264 0.91488-7.7481-0.0147l-6.1872-0.81746-2.3376 0.69903c-1.9463 0.58203-2.9576 0.71239-6.0417 0.77885-2.0373 0.0439-4.0018 0.0227-4.3656-0.0471zm9.3927-2.7453c2.7021-0.84294 3.3641-0.88046 7.0139-0.39756 1.8177 0.2405 3.9597 0.5024 4.76 0.58202l1.4552 0.14476-2.1828-2.2195c-1.2968-1.3186-2.1828-2.4388-2.1828-2.7598 0-0.29716 0.37333-0.88998 0.82963-1.3174 1.1855-1.1104 3.2136-4.2793 4.0066-6.2602 4.851-12.117-2.4547-25.74-15.21-28.361-12.956-2.6626-25.089 7.3381-25.079 20.67 0.0077 9.6775 6.9632 18.159 16.667 20.323 2.4896 0.55526 7.5005 0.35109 9.9219-0.40426z"/>
 </g>
</svg>
