<svg width="9.2604mm" height="8.1807mm" version="1.1" viewBox="0 0 9.2604 8.1807" xmlns="http://www.w3.org/2000/svg">
 <g transform="translate(26.649 -151.38)">
  <path d="m-18.065 152.18c-0.45579-0.51728-1.0888-0.80305-1.7834-0.80305-0.97488 0-1.5934 0.5824-1.9407 1.0707-0.09043 0.12661-0.1664 0.25321-0.2297 0.37439-0.0633-0.11937-0.14108-0.24778-0.2297-0.37439-0.34727-0.48834-0.96583-1.0707-1.9407-1.0707-0.69453 0-1.3276 0.28577-1.7834 0.80305-0.43589 0.49558-0.67644 1.1576-0.67644 1.8648 0 0.77049 0.30024 1.4867 0.94594 2.2554 0.57697 0.68729 1.4072 1.3945 2.3694 2.2138 0.35812 0.30566 0.7289 0.62037 1.1232 0.96583l0.01266 0.0109c0.05064 0.0452 0.11576 0.0669 0.17906 0.0669 0.0633 0 0.12842-0.0217 0.17906-0.0669l0.01266-0.0109c0.39429-0.34546 0.76507-0.66017 1.1232-0.96583 0.96222-0.81933 1.7924-1.5265 2.3694-2.2138 0.6457-0.76869 0.94594-1.4849 0.94594-2.2554 0-0.70719-0.24055-1.3692-0.67644-1.8648z" />
 </g>
</svg>
