<svg width="38.941mm" height="34.639mm" version="1.1" viewBox="0 0 38.941 34.639" xmlns="http://www.w3.org/2000/svg">
 <g transform="translate(-68.351 -181.51)">
  <path d="m86.254 216.08c-0.13766-0.0385-0.32285-0.15727-0.35535-0.24006-0.038-0.0968-0.01478 0.51104-4.0483-14.136-0.57191-2.0768-1.0743-3.8904-1.1264-4.0276-0.07042-0.18521-2.3749-2.9616-3.2591-3.9264-0.27961-0.30511-3.3469-3.8684-7.3748-8.5676-1.9746-2.3036-2.1466-2.8421-1.1216-3.5109l0.24014-0.15668 1.1751 0.0215c1.0515 0.0192 9.5418 0.30694 16.024 0.54306 1.3373 0.0487 6.3783 0.22775 11.202 0.39787l8.7707 0.30932 0.28086 0.13322c0.38063 0.18056 0.63102 0.60946 0.63061 1.0802l-3.2e-4 0.38053-0.50586 0.82496c-0.56293 0.91803-3.1368 5.0421-4.4442 7.1207-0.81286 1.2924-2.4956 3.9852-5.2093 8.3365-3.1213 5.0047-3.994 6.4013-4.9922 7.9891-0.58548 0.93134-1.7461 2.7875-2.5791 4.1248-1.9788 3.1768-1.1001 2.6125-2.2534 3.2524-0.3076 0.17068-0.71537 0.14575-1.0541 0.0509zm1.6215-5.2801c0.32945-0.53666 0.76248-1.2298 0.96228-1.5402 0.1998-0.31045 0.98042-1.5609 1.7347-2.7788 0.75429-1.2179 1.4722-2.3707 1.5953-2.5617 2.0076-3.1149 10.249-16.417 10.184-16.438-0.0485-0.0161-0.25595 0.0658-0.46108 0.18221-0.20512 0.11637-0.8028 0.43674-1.3282 0.71194-0.8387 0.43933-3.6814 1.9466-5.7313 3.0388-0.38209 0.20359-1.4176 0.75102-2.3012 1.2165-0.88358 0.46549-1.7237 0.91444-1.867 0.99765-0.14328 0.0832-0.8076 0.43575-1.4762 0.7834-0.66865 0.34765-1.2548 0.65966-1.3026 0.69336-0.04776 0.0337-0.673 0.36564-1.3894 0.73767-0.71642 0.37203-1.3416 0.70508-1.3894 0.7401-0.04776 0.035-0.4514 0.24934-0.89697 0.47628-1.0312 0.5252-1.0536 0.0135 0.20372 4.6516 1.1278 4.1602 2.6227 9.648 2.7011 9.9157 0.07506 0.25616 0.14264 0.1829 0.76209-0.82615zm-4.8316-15.967c0.46526-0.24502 1.0413-0.55259 1.2801-0.68347 0.2388-0.13089 0.82496-0.44455 1.3026-0.69702 0.47761-0.25248 1.3568-0.72033 1.9539-1.0397 1.2212-0.65323 1.5961-0.85242 5.5576-2.9529 1.5522-0.82304 3.1153-1.6537 3.4735-1.846 0.35821-0.19224 1.0225-0.54523 1.4762-0.78442 0.90819-0.47877 2.6635-1.4136 2.8605-1.5235 0.36687-0.20458 0.0441-0.24542-2.7069-0.34249-21.027-0.74198-25.618-0.89545-25.656-0.85769-0.0663 0.0663 0.05245 0.23987 0.57945 0.84699 1.7427 2.0076 2.3315 2.6891 3.2566 3.7694 0.57261 0.66865 1.4516 1.6876 1.9533 2.2643s1.049 1.2089 1.2161 1.4049c1.7209 2.0176 2.4855 2.8864 2.5408 2.8867 0.03623 1.7e-4 0.44654-0.20011 0.9118-0.44514z"/>
 </g>
</svg>
